<?xml version="1.0" encoding="UTF-8" standalone="no"?>
<!-- Created with Inkscape (http://www.inkscape.org/) -->

<svg
   xmlns:dc="http://purl.org/dc/elements/1.1/"
   xmlns:cc="http://creativecommons.org/ns#"
   xmlns:rdf="http://www.w3.org/1999/02/22-rdf-syntax-ns#"
   xmlns:svg="http://www.w3.org/2000/svg"
   xmlns="http://www.w3.org/2000/svg"
   xmlns:sodipodi="http://sodipodi.sourceforge.net/DTD/sodipodi-0.dtd"
   xmlns:inkscape="http://www.inkscape.org/namespaces/inkscape"
   width="32"
   height="32"
   id="svg2"
   version="1.1"
   inkscape:version="0.48pre1 r9509"
   sodipodi:docname="menu-default.svg"
   inkscape:export-filename="D:\Work\MAIN\GPS\GGT-200\SRC\SITE\googleapp\gps-maps\stylesheets\marker1.png"
   inkscape:export-xdpi="90"
   inkscape:export-ydpi="90">
  <defs
     id="defs4">
    <inkscape:perspective
       sodipodi:type="inkscape:persp3d"
       inkscape:vp_x="0 : 526.18109 : 1"
       inkscape:vp_y="0 : 1000 : 0"
       inkscape:vp_z="744.09448 : 526.18109 : 1"
       inkscape:persp3d-origin="372.04724 : 350.78739 : 1"
       id="perspective10" />
    <inkscape:perspective
       id="perspective3654"
       inkscape:persp3d-origin="0.5 : 0.33333333 : 1"
       inkscape:vp_z="1 : 0.5 : 1"
       inkscape:vp_y="0 : 1000 : 0"
       inkscape:vp_x="0 : 0.5 : 1"
       sodipodi:type="inkscape:persp3d" />
    <inkscape:perspective
       id="perspective3688"
       inkscape:persp3d-origin="0.5 : 0.33333333 : 1"
       inkscape:vp_z="1 : 0.5 : 1"
       inkscape:vp_y="0 : 1000 : 0"
       inkscape:vp_x="0 : 0.5 : 1"
       sodipodi:type="inkscape:persp3d" />
  </defs>
  <sodipodi:namedview
     id="base"
     pagecolor="#ffffff"
     bordercolor="#666666"
     borderopacity="1.0"
     inkscape:pageopacity="0.0"
     inkscape:pageshadow="2"
     inkscape:zoom="18.05332"
     inkscape:cx="15.412124"
     inkscape:cy="15.602199"
     inkscape:document-units="px"
     inkscape:current-layer="layer1"
     showgrid="true"
     inkscape:snap-global="true"
     inkscape:window-width="1514"
     inkscape:window-height="1039"
     inkscape:window-x="22"
     inkscape:window-y="22"
     inkscape:window-maximized="0"
     showguides="true"
     inkscape:guide-bbox="true">
    <inkscape:grid
       type="xygrid"
       id="grid2818"
       empspacing="5"
       visible="true"
       enabled="true"
       snapvisiblegridlinesonly="true" />
    <sodipodi:guide
       orientation="0,1"
       position="0,16"
       id="guide3767" />
    <sodipodi:guide
       orientation="1,0"
       position="16,0"
       id="guide3769" />
  </sodipodi:namedview>
  <metadata
     id="metadata7">
    <rdf:RDF>
      <cc:Work
         rdf:about="">
        <dc:format>image/svg+xml</dc:format>
        <dc:type
           rdf:resource="http://purl.org/dc/dcmitype/StillImage" />
        <dc:title />
      </cc:Work>
    </rdf:RDF>
  </metadata>
  <g
     inkscape:label="Layer 1"
     inkscape:groupmode="layer"
     id="layer1"
     transform="translate(0,-1020.3622)">
    <path
       style="fill:none;stroke:#000000;stroke-width:1px;stroke-linecap:butt;stroke-linejoin:miter;stroke-opacity:1"
       d="M 4,12 C 3.996062,11.77966 3.8253579,11.48748 3.9881861,11.33898 4.6996833,10.690093 5.6022888,10.287772 6.4254109,9.7880191 7.7283612,8.9969421 6.4206552,10.012982 7.9763722,8.9017555 8.0826124,8.8258696 8.1525472,8.7077954 8.2533296,8.6247981 8.4671213,8.4487343 8.6964614,8.2924493 8.9180273,8.1262749 9.1395931,7.9601004 9.3478656,7.7745387 9.5827249,7.6277516 9.7927896,7.4964612 10.045846,7.439386 10.247423,7.2954028 c 0.191232,-0.1365946 0.310518,-0.3575196 0.498523,-0.4985233 0.185081,-0.1388106 0.406593,-0.2208564 0.609306,-0.3323488 0.166566,-0.091611 0.338924,-0.1736871 0.498523,-0.2769574 0.155017,-0.100305 0.288115,-0.2320439 0.443132,-0.3323489 0.1596,-0.1032702 0.338924,-0.173687 0.498523,-0.2769573 0.155017,-0.100305 0.285884,-0.2355804 0.443132,-0.3323489 0.08468,-0.052111 0.195501,-0.053763 0.276958,-0.1107829 0.547813,-0.3834691 0.0068,-0.1716425 0.553914,-0.6093062 0.07764,-0.062114 0.179796,-0.089661 0.276958,-0.110783 0.329243,-0.071575 0.672405,-0.075996 0.997046,-0.1661744 0.01119,-0.00311 -0.01286,-0.2640954 0,-0.2769574 0.01306,-0.013056 0.03693,0 0.05539,0 0.03693,-0.036928 0.08743,-0.064073 0.110783,-0.1107829 0.01651,-0.033029 -0.01652,-0.077754 0,-0.110783 0.0083,-0.016514 0.04003,0.010242 0.05539,0 0.04345,-0.028968 0.08743,-0.064073 0.110783,-0.1107829 0.01652,-0.033029 -0.01652,-0.077754 0,-0.1107829 0.0083,-0.016515 0.04003,0.010242 0.05539,0 0.04345,-0.028968 0.07386,-0.073855 0.110782,-0.110783 0.03693,-0.036928 0.07386,-0.073855 0.110783,-0.1107829 0.03693,-0.036928 0.06407,-0.087428 0.110783,-0.110783 0.03303,-0.016514 0.07775,0.016515 0.110783,0 0.04671,-0.023355 0.07386,-0.073855 0.110783,-0.1107829 0.03693,-0.036928 0.08743,-0.064073 0.110783,-0.110783 0.01651,-0.033029 -0.02611,-0.1368947 0,-0.1107829 0.05839,0.058388 0.06009,0.1563869 0.110783,0.2215659 0.08016,0.103057 0.197354,0.1734732 0.276958,0.2769573 0.38463,0.5000197 0.232645,0.5051721 0.609306,1.1078295 0.146787,0.2348594 0.318282,0.454416 0.498523,0.6646977 0.15294,0.1784299 0.345583,0.3200933 0.498523,0.4985232 0.180242,0.2102818 0.315558,0.4567821 0.498524,0.6646977 0.224252,0.2548322 0.480059,0.4800595 0.720089,0.7200892 0.14771,0.1477106 0.295421,0.2954212 0.443131,0.4431318 0.24003,0.2400297 0.465257,0.4958368 0.72009,0.7200891 0.489491,0.4307521 1.356334,0.9293844 1.827918,1.2740039 0.105412,0.077032 0.184638,0.1846383 0.276958,0.2769574 0.221566,0.1661744 0.439328,0.3375454 0.664697,0.4985234 0.09081,0.06487 0.811163,0.54406 0.941655,0.609306 0.141101,0.07055 0.308779,0.0835 0.443132,0.166174 0.111192,0.06843 0.169999,0.202087 0.276958,0.276958 0.455092,0.318564 0.111604,-0.109962 0.498523,0.276957 0.06528,0.06528 0.08602,0.175763 0.166174,0.221566 0.06413,0.03664 0.160115,-0.04097 0.221566,0 0.06871,0.0458 0.07386,0.147711 0.110783,0.221566 0.09232,0.03693 0.190627,0.06145 0.276957,0.110783 0.04534,0.02591 0.07386,0.07386 0.110783,0.110783 0.03693,0.03693 0.07386,0.07386 0.110783,0.110783 0.110783,0.110783 0.221566,0.221566 0.332349,0.332349 0.03693,0.03693 0.08487,0.06544 0.110783,0.110783 0.302572,0.756429 -0.05007,-0.01971 0.221566,0.38774 0.0458,0.0687 0.07725,0.14611 0.110783,0.221566 0.04038,0.09086 0.04048,0.206649 0.110783,0.276957 0.07031,0.07031 0.206649,0.04048 0.276957,0.110783 0.07031,0.07031 0.05376,0.195501 0.110783,0.276958 0.07487,0.106958 0.190219,0.179376 0.276958,0.276957 0.06133,0.069 0.107073,0.150644 0.166174,0.221566 0.03343,0.04012 0.06407,0.08743 0.110783,0.110783 0.09947,0.04974 0.136556,-0.07212 0.221566,0.05539 0.02048,0.03073 0.03429,0.09707 0,0.110783 -0.08572,0.03429 -0.184638,0 -0.276958,0 -0.276957,0 -0.553914,0 -0.830872,0 -0.886263,0 -1.772527,0 -2.65879,0 -0.221566,0 -0.443132,0 -0.664698,0 -0.07385,0 -0.149469,-0.01602 -0.221566,0 -0.09706,0.02157 -0.179894,0.08921 -0.276957,0.110783 -0.12884,0.02863 -0.415445,-0.02308 -0.553915,0 -0.04073,0.0068 -0.07073,0.04538 -0.110783,0.05539 -0.07165,0.01791 -0.155508,-0.03303 -0.221566,0 -0.01651,0.0083 0.01652,0.04713 0,0.05539 -0.03303,0.01652 -0.07775,-0.01651 -0.110783,0 -0.01651,0.0083 0,0.03693 0,0.05539 0,0.07386 0,0.14771 0,0.221565 0.01846,0.03693 0.04955,0.06991 0.05539,0.110783 0.01306,0.09139 -0.02003,0.186837 0,0.276958 0.01791,0.08061 0.07725,0.14611 0.110783,0.221566 0.04038,0.09086 0.08921,0.179894 0.110783,0.276957 0.01602,0.0721 -0.01321,0.148902 0,0.221566 0.02405,0.13225 0.09302,0.254501 0.110782,0.38774 0.01952,0.146415 -0.02246,0.297139 0,0.443132 0.01512,0.09827 0.09845,0.178294 0.110783,0.276957 0.02519,0.201534 0,0.406205 0,0.609307 0,0.203102 0,0.406204 0,0.609306 0,0.720089 0,1.440178 0,2.160267 0,0.516987 0,1.033974 0,1.550962 0,0.258493 0,0.516987 0,0.77548 0,0.01549 0.0043,0.268291 0,0.276958 -0.02335,0.04671 -0.08743,0.06407 -0.110783,0.110782 -0.01651,0.03303 0,0.07386 0,0.110783 0,0.09232 0,0.184639 0,0.276958 0,0.03693 0.01652,0.07775 0,0.110783 -0.136894,0.273789 -0.110782,-0.03824 -0.110782,0.221566 0,0.07386 0,0.14771 0,0.221566 0,0.03693 0.02611,0.08467 0,0.110782 -0.02611,0.02611 -0.07496,-0.009 -0.110783,0 -0.04005,0.01001 -0.09232,0.09232 -0.110783,0.05539 -0.01846,-0.03693 0.139976,-0.08459 0.110783,-0.05539 -0.07386,0.05539 -0.147711,0.110783 -0.221566,0.166175 0,0.03693 0.02146,0.08073 0,0.110783 -0.07589,0.10624 -0.184639,0.184638 -0.276958,0.276957 -0.07386,0.07386 -0.14771,0.147711 -0.221566,0.221566 -0.03693,0.03693 -0.07386,0.07385 -0.110783,0.110783 -0.03693,0.03693 -0.08743,0.06407 -0.110782,0.110783 -0.01651,0.03303 0.01651,0.07775 0,0.110783 -0.02336,0.04671 -0.07386,0.07386 -0.110783,0.110783 -0.03693,0.03693 -0.07386,0.07385 -0.110783,0.110783 -0.03693,0.03693 -0.06544,0.08487 -0.110783,0.110783 -0.08633,0.04933 -0.190628,0.06145 -0.276958,0.110783 -0.04534,0.02591 -0.06733,0.08181 -0.110783,0.110783 -0.0687,0.0458 -0.152861,0.06498 -0.221566,0.110783 -0.04345,0.02897 -0.0598,0.09945 -0.110782,0.110783 -0.12617,0.02804 -0.260253,-0.02125 -0.387741,0 -0.09808,0.01635 -0.179894,0.08921 -0.276957,0.110783 -0.0721,0.01602 -0.147711,0 -0.221566,0 -0.129247,0 -0.258494,0 -0.38774,0 -0.295422,0 -0.590843,0 -0.886264,0 -0.62777,0 -1.25554,0 -1.88331,0 -0.129247,0 -0.258494,0 -0.38774,0 -0.147711,0 -0.297229,0.02304 -0.443132,0 -0.207944,-0.03283 -0.401363,-0.133342 -0.609306,-0.166175 -0.145903,-0.02304 -0.297952,0.02722 -0.443132,0 -0.155053,-0.02907 -0.288079,-0.137102 -0.443132,-0.166174 -0.272214,-0.05104 -0.559293,0.05432 -0.830872,0 -0.154692,-0.03094 -0.289417,-0.130702 -0.443132,-0.166175 -0.411479,-0.09496 -0.177253,0.13294 -0.664698,0 -0.08907,-0.02429 -0.135124,-0.133759 -0.221565,-0.166174 -0.06915,-0.02593 -0.151501,0.02335 -0.221566,0 -0.102137,-0.03405 -0.178001,-0.123765 -0.276958,-0.166175 -0.05091,-0.02182 -0.110783,0 -0.166174,0 -0.147711,0 -0.295421,0 -0.443132,0 -0.129247,0 -0.258493,0 -0.38774,0 -0.03693,0 -0.101827,0.03583 -0.110783,0 -0.03582,-0.1433 0,-0.295421 0,-0.443131 0,-0.48006 0,-0.960119 0,-1.440179 0,-1.790991 0,-3.581982 0,-5.372973 0,-0.369276 0,-0.738553 0,-1.107829 0,-0.129247 0,-0.258494 0,-0.38774 0,-0.129247 0.02535,-0.261004 0,-0.387741 -0.03094,-0.154691 -0.137102,-0.288079 -0.166175,-0.443132 -0.02722,-0.14518 0,-0.295421 0,-0.443131 0,-0.07386 0.02336,-0.151501 0,-0.221566 -0.03405,-0.102137 -0.132128,-0.174821 -0.166174,-0.276958 -0.02336,-0.07006 0,-0.14771 0,-0.221565 0,-0.03693 0,-0.07386 0,-0.110783 0,-0.332349 0,-0.664698 0,-0.997047 0,-0.07386 0,-0.147711 0,-0.221566 0,-0.01846 0.01652,-0.04713 0,-0.05539 -0.03303,-0.01652 -0.07386,0 -0.110783,0 -0.166174,0 -0.332349,0 -0.4985232,0 -0.4800595,0 -0.9601189,0 -1.4401783,0 -0.6277701,0 -1.2555401,0 -1.8833101,0 -0.1292468,0 -0.2584936,0 -0.3877404,0 -0.1477105,0 -0.2971388,-0.02246 -0.4431317,0 -0.098275,0.01512 -0.1798944,0.08921 -0.2769574,0.110783 -0.072097,0.01602 -0.1477106,0 -0.2215659,0 -0.1661744,0 -0.3323488,0 -0.4985233,0 -0.036928,0 -0.073855,0 -0.1107829,0 -0.018464,0 -0.037875,-0.0058 -0.055391,0 -0.039168,0.01306 -0.070729,0.04538 -0.1107829,0.05539 -0.035825,0.009 -0.073855,0 -0.110783,0 -0.036928,0 -0.073855,0 -0.1107829,0 -0.110783,0 -0.2215659,0 -0.3323489,0 -0.3323488,0 -0.6646977,0 -0.9970465,0 -0.018083,0 -0.2650606,0.0119 -0.2769574,0 -0.03979,-0.03979 0.027972,-0.203286 0.055392,-0.221566 0.030726,-0.02048 0.077754,0.01652 0.110783,0 0.04671,-0.02335 0.073855,-0.07386 0.1107829,-0.110783 0.036928,-0.03693 0.073855,-0.07386 0.1107829,-0.110783 0.036928,-0.03693 0.068287,-0.08043 0.110783,-0.110783 0.092319,-0.05539 0.1846382,-0.110783 0.2769574,-0.166174 0.036928,0 0.077754,0.01652 0.1107829,0 0.1832029,-0.0916 0.078038,-0.09059 0.110783,-0.221566 0.010013,-0.04005 0.03062,-0.07775 0.055391,-0.110783 0.00975,-0.013 0.2182187,-0.214871 0.2215659,-0.221566 0.016515,-0.03303 -0.016514,-0.07775 0,-0.110783 0.00826,-0.01651 0.047134,0.01652 0.055392,0 0.016514,-0.03303 -0.00896,-0.07496 0,-0.110783 0.010013,-0.04005 0.054146,-0.06951 0.055391,-0.110783 C 4.0464335,12.186012 3.9648419,12.087895 4,12 4.0471376,11.882156 4.1763619,11.817424 4.2651435,11.726721 4.3016737,11.6894 4.4122919,11.578456 4.3759264,11.615938 4.2511827,11.744509 4.1253088,11.871979 4,12"
       id="path3771"
       inkscape:connector-curvature="0"
       transform="translate(0,1020.3622)" />
  </g>
</svg>
